<svg width="180" height="49" viewBox="0 0 180 49" fill="none" xmlns="http://www.w3.org/2000/svg">
<path d="M29.8807 12.6462C29.8807 19.2973 24.4755 24.6916 17.8048 24.6916C11.1341 24.6916 5.72894 19.2973 5.72894 12.6462C5.72894 5.99502 11.1341 0.600736 17.8048 0.600736C24.4755 0.600736 29.8807 5.99502 29.8807 12.6462Z" fill="black" stroke="black" stroke-width="1.20147"/>
<path d="M24.8091 7.27168C24.8091 8.68461 23.6606 9.83248 22.2407 9.83248C20.8209 9.83248 19.6723 8.68461 19.6723 7.27168C19.6723 5.85875 20.8209 4.71087 22.2407 4.71087C23.6606 4.71087 24.8091 5.85875 24.8091 7.27168Z" fill="#248F83" stroke="#248F83" stroke-width="1.20147"/>
<path d="M6.87363 24.1321C5.88855 22.7287 3.95045 22.3869 2.54476 23.3688C1.13907 24.3507 0.798102 26.2845 1.78318 27.6879L14.8589 46.3172C15.844 47.7206 17.7821 48.0624 19.1878 47.0805C20.5935 46.0986 20.9345 44.1648 19.9494 42.7614L6.87363 24.1321Z" fill="black"/>
<line y1="-0.300368" x2="6.20369" y2="-0.300368" transform="matrix(0.819799 -0.572651 0.574502 0.818503 8.44006 37.136)" stroke="#248F83" stroke-width="0.600736"/>
<path fill-rule="evenodd" clip-rule="evenodd" d="M5.01641 25.4975C5.79746 25.4751 6.30534 26.1039 6.41354 26.4856C6.44491 26.5964 6.39029 26.6954 6.29154 26.7068C6.19279 26.7182 6.0873 26.6377 6.05592 26.527C6.00233 26.3379 5.67749 25.8839 5.10225 25.9004C5.00139 25.9033 4.9004 25.8155 4.87669 25.7042C4.85298 25.593 4.91554 25.5004 5.01641 25.4975Z" fill="#248F83"/>
<path d="M31.1823 29.3192C32.3371 30.3505 32.435 32.1207 31.401 33.2731L19.5409 46.4899C18.5068 47.6423 16.7323 47.7404 15.5775 46.7091C14.4227 45.6778 14.3248 43.9075 15.3588 42.7552L27.2189 29.5384C28.253 28.386 30.0275 28.2879 31.1823 29.3192Z" stroke="black" stroke-width="0.600736"/>
<path d="M64.1789 20.35H61.713C61.5672 19.6407 61.312 19.0176 60.9474 18.4806C60.5894 17.9437 60.1519 17.493 59.6349 17.1284C59.1245 16.7572 58.5577 16.4788 57.9346 16.2931C57.3115 16.1075 56.6619 16.0147 55.9858 16.0147C54.7528 16.0147 53.6358 16.3263 52.6349 16.9494C51.6406 17.5725 50.8484 18.4906 50.2585 19.7037C49.6751 20.9167 49.3835 22.4049 49.3835 24.1681C49.3835 25.9314 49.6751 27.4196 50.2585 28.6326C50.8484 29.8457 51.6406 30.7638 52.6349 31.3869C53.6358 32.01 54.7528 32.3216 55.9858 32.3216C56.6619 32.3216 57.3115 32.2288 57.9346 32.0431C58.5577 31.8575 59.1245 31.5824 59.6349 31.2179C60.1519 30.8467 60.5894 30.3926 60.9474 29.8556C61.312 29.3121 61.5672 28.689 61.713 27.9863H64.1789C63.9933 29.0271 63.6553 29.9584 63.1647 30.7804C62.6742 31.6023 62.0644 32.3017 61.3352 32.8784C60.606 33.4485 59.7874 33.8826 58.8792 34.1809C57.9777 34.4792 57.0132 34.6284 55.9858 34.6284C54.249 34.6284 52.7045 34.2041 51.3522 33.3556C50 32.5072 48.936 31.3007 48.1605 29.7363C47.3849 28.1719 46.9971 26.3159 46.9971 24.1681C46.9971 22.0204 47.3849 20.1644 48.1605 18.6C48.936 17.0356 50 15.8291 51.3522 14.9806C52.7045 14.1322 54.249 13.7079 55.9858 13.7079C57.0132 13.7079 57.9777 13.8571 58.8792 14.1554C59.7874 14.4537 60.606 14.8912 61.3352 15.4679C62.0644 16.0379 62.6742 16.734 63.1647 17.5559C63.6553 18.3713 63.9933 19.3026 64.1789 20.35ZM77.4705 28.1056V19.0772H79.8171V34.35H77.4705V31.7647H77.3114C76.9534 32.5403 76.3966 33.1999 75.6409 33.7434C74.8853 34.2804 73.9307 34.5488 72.7773 34.5488C71.8228 34.5488 70.9743 34.34 70.2318 33.9224C69.4894 33.4982 68.9061 32.8618 68.4818 32.0133C68.0576 31.1582 67.8455 30.081 67.8455 28.7818V19.0772H70.1921V28.6227C70.1921 29.7363 70.5036 30.6246 71.1267 31.2875C71.7565 31.9503 72.5585 32.2818 73.533 32.2818C74.1163 32.2818 74.7096 32.1326 75.3128 31.8343C75.9227 31.536 76.4331 31.0787 76.8441 30.4622C77.2617 29.8457 77.4705 29.0602 77.4705 28.1056ZM84.115 34.35V19.0772H86.3821V21.3841H86.5411C86.8196 20.6284 87.3233 20.0152 88.0525 19.5446C88.7817 19.0739 89.6036 18.8386 90.5184 18.8386C90.6908 18.8386 90.9062 18.8419 91.1647 18.8485C91.4233 18.8552 91.6188 18.8651 91.7514 18.8784V21.2647C91.6718 21.2449 91.4895 21.215 91.2045 21.1753C90.9261 21.1289 90.6311 21.1056 90.3196 21.1056C89.5771 21.1056 88.9143 21.2614 88.3309 21.573C87.7542 21.8779 87.2968 22.3021 86.9588 22.8457C86.6273 23.3826 86.4616 23.9958 86.4616 24.6852V34.35H84.115ZM99.0273 34.7079C98.0595 34.7079 97.1812 34.5256 96.3924 34.161C95.6035 33.7898 94.9771 33.2562 94.5131 32.5602C94.0491 31.8575 93.8171 31.0091 93.8171 30.0147C93.8171 29.1397 93.9894 28.4305 94.3341 27.8869C94.6788 27.3367 95.1395 26.9058 95.7162 26.5943C96.2929 26.2827 96.9293 26.0507 97.6253 25.8983C98.328 25.7392 99.0339 25.6132 99.7432 25.5204C100.671 25.4011 101.424 25.3116 102 25.252C102.584 25.1857 103.008 25.0763 103.273 24.9238C103.545 24.7714 103.681 24.5062 103.681 24.1284V24.0488C103.681 23.0678 103.412 22.3055 102.875 21.7619C102.345 21.2183 101.54 20.9466 100.459 20.9466C99.3389 20.9466 98.4605 21.1918 97.8242 21.6824C97.1878 22.1729 96.7404 22.6966 96.4818 23.2534L94.2546 22.4579C94.6523 21.5299 95.1826 20.8074 95.8455 20.2903C96.515 19.7666 97.2442 19.4021 98.033 19.1966C98.8284 18.9844 99.6106 18.8784 100.38 18.8784C100.87 18.8784 101.434 18.938 102.07 19.0574C102.713 19.17 103.333 19.4054 103.929 19.7633C104.533 20.1213 105.033 20.6615 105.431 21.3841C105.828 22.1066 106.027 23.0744 106.027 24.2875V34.35H103.681V32.2818H103.561C103.402 32.6132 103.137 32.9679 102.766 33.3457C102.395 33.7235 101.901 34.045 101.284 34.3102C100.668 34.5753 99.9156 34.7079 99.0273 34.7079ZM99.3853 32.6C100.313 32.6 101.095 32.4177 101.732 32.0531C102.375 31.6885 102.859 31.2179 103.184 30.6412C103.515 30.0645 103.681 29.4579 103.681 28.8216V26.6738C103.581 26.7931 103.363 26.9025 103.024 27.002C102.693 27.0948 102.309 27.1776 101.871 27.2505C101.44 27.3168 101.019 27.3765 100.608 27.4295C100.204 27.4759 99.8758 27.5157 99.6239 27.5488C99.014 27.6284 98.444 27.7576 97.9137 27.9366C97.39 28.109 96.9657 28.3708 96.6409 28.7221C96.3228 29.0668 96.1637 29.5375 96.1637 30.1341C96.1637 30.9494 96.4653 31.5659 97.0685 31.9835C97.6783 32.3945 98.4506 32.6 99.3853 32.6ZM110.31 34.35V19.0772H112.577V21.4636H112.776C113.094 20.6483 113.608 20.0152 114.317 19.5645C115.027 19.1071 115.879 18.8784 116.873 18.8784C117.88 18.8784 118.719 19.1071 119.388 19.5645C120.065 20.0152 120.592 20.6483 120.969 21.4636H121.129C121.52 20.6748 122.106 20.0484 122.888 19.5843C123.671 19.1137 124.609 18.8784 125.702 18.8784C127.068 18.8784 128.185 19.3059 129.053 20.161C129.922 21.0095 130.356 22.332 130.356 24.1284V34.35H128.009V24.1284C128.009 23.0015 127.701 22.1961 127.084 21.7122C126.468 21.2283 125.742 20.9863 124.907 20.9863C123.833 20.9863 123.001 21.3111 122.411 21.9608C121.821 22.6038 121.526 23.4191 121.526 24.4068V34.35H119.14V23.8897C119.14 23.0214 118.858 22.322 118.295 21.7917C117.731 21.2548 117.005 20.9863 116.117 20.9863C115.507 20.9863 114.937 21.1487 114.407 21.4735C113.883 21.7984 113.459 22.2491 113.134 22.8258C112.816 23.3959 112.657 24.0555 112.657 24.8045V34.35H110.31ZM139.141 34.7079C138.173 34.7079 137.294 34.5256 136.506 34.161C135.717 33.7898 135.09 33.2562 134.626 32.5602C134.162 31.8575 133.93 31.0091 133.93 30.0147C133.93 29.1397 134.103 28.4305 134.447 27.8869C134.792 27.3367 135.253 26.9058 135.83 26.5943C136.406 26.2827 137.043 26.0507 137.739 25.8983C138.441 25.7392 139.147 25.6132 139.856 25.5204C140.785 25.4011 141.537 25.3116 142.114 25.252C142.697 25.1857 143.121 25.0763 143.386 24.9238C143.658 24.7714 143.794 24.5062 143.794 24.1284V24.0488C143.794 23.0678 143.526 22.3055 142.989 21.7619C142.458 21.2183 141.653 20.9466 140.572 20.9466C139.452 20.9466 138.574 21.1918 137.937 21.6824C137.301 22.1729 136.854 22.6966 136.595 23.2534L134.368 22.4579C134.766 21.5299 135.296 20.8074 135.959 20.2903C136.628 19.7666 137.357 19.4021 138.146 19.1966C138.942 18.9844 139.724 18.8784 140.493 18.8784C140.983 18.8784 141.547 18.938 142.183 19.0574C142.826 19.17 143.446 19.4054 144.043 19.7633C144.646 20.1213 145.146 20.6615 145.544 21.3841C145.942 22.1066 146.141 23.0744 146.141 24.2875V34.35H143.794V32.2818H143.675C143.516 32.6132 143.25 32.9679 142.879 33.3457C142.508 33.7235 142.014 34.045 141.398 34.3102C140.781 34.5753 140.029 34.7079 139.141 34.7079ZM139.499 32.6C140.427 32.6 141.209 32.4177 141.845 32.0531C142.488 31.6885 142.972 31.2179 143.297 30.6412C143.628 30.0645 143.794 29.4579 143.794 28.8216V26.6738C143.695 26.7931 143.476 26.9025 143.138 27.002C142.806 27.0948 142.422 27.1776 141.984 27.2505C141.553 27.3168 141.133 27.3765 140.722 27.4295C140.317 27.4759 139.989 27.5157 139.737 27.5488C139.127 27.6284 138.557 27.7576 138.027 27.9366C137.503 28.109 137.079 28.3708 136.754 28.7221C136.436 29.0668 136.277 29.5375 136.277 30.1341C136.277 30.9494 136.579 31.5659 137.182 31.9835C137.792 32.3945 138.564 32.6 139.499 32.6ZM150.424 40.0772V19.0772H152.691V21.5034H152.969C153.141 21.2382 153.38 20.9002 153.685 20.4892C153.997 20.0716 154.441 19.7003 155.017 19.3755C155.601 19.0441 156.39 18.8784 157.384 18.8784C158.67 18.8784 159.803 19.1999 160.784 19.8429C161.765 20.4859 162.531 21.3973 163.081 22.5772C163.631 23.7572 163.907 25.1492 163.907 26.7534C163.907 28.3708 163.631 29.7728 163.081 30.9593C162.531 32.1393 161.769 33.054 160.794 33.7037C159.82 34.3467 158.696 34.6681 157.424 34.6681C156.443 34.6681 155.657 34.5057 155.067 34.1809C154.477 33.8495 154.023 33.475 153.705 33.0574C153.387 32.6331 153.141 32.2818 152.969 32.0034H152.77V40.0772H150.424ZM152.73 26.7136C152.73 27.867 152.899 28.8845 153.238 29.7662C153.576 30.6412 154.069 31.3272 154.719 31.8244C155.369 32.3149 156.164 32.5602 157.105 32.5602C158.086 32.5602 158.905 32.3017 159.561 31.7846C160.224 31.261 160.721 30.5583 161.053 29.6767C161.391 28.7884 161.56 27.8007 161.56 26.7136C161.56 25.6397 161.394 24.6719 161.063 23.8102C160.738 22.9418 160.244 22.2557 159.581 21.752C158.925 21.2415 158.1 20.9863 157.105 20.9863C156.151 20.9863 155.349 21.2283 154.699 21.7122C154.05 22.1895 153.559 22.859 153.228 23.7207C152.896 24.5758 152.73 25.5735 152.73 26.7136Z" fill="black"/>
</svg>
